<svg xmlns="http://www.w3.org/2000/svg" viewBox="0 0 600.75 120.12"><defs><style>.cls-1{fill:#231f20;fill-rule:evenodd;}</style></defs><title>b&amp;amp;m-logo</title><g id="Layer_2" data-name="Layer 2"><g id="Layer_2-2" data-name="Layer 2"><path class="cls-1" d="M187.9,112.16a2.45,2.45,0,0,1-1.36,2.38c-1.78,1-5.33,1.44-7.79,1.44a24.82,24.82,0,0,1-17.88-7.31c-2.4-2.32-7.24-9.28-7.24-18.91,0-8,2.8-14.2,6.76-17.34,5.19-4.1,10.31-4.5,14.61-4.5,8.81,0,14.34,2.93,16,5.53a10.43,10.43,0,0,1,1.44,4.5c.07.61.13,1,.47,1s.62-.34.62-1.43a85.71,85.71,0,0,1,.48-9.69c0-.28-.14-.55-.82-.62a34.27,34.27,0,0,1-5.53-.68,58.88,58.88,0,0,0-10.45-1.16c-5.26,0-12,.48-18.16,4.3s-11.4,11.54-11.4,22.46c0,8.54,4,15.84,8.12,19.46,7.58,6.62,17.28,7.31,22.47,7.31,4,0,10.1-.75,14.47-3.08.82-.47.89-.61.89-3.68v-7.65c0-2.87,0-4.92.13-7.1.14-2.39.69-3.55,2.53-3.89a9.92,9.92,0,0,1,1.71-.21c.27,0,.54-.13.54-.41s-.34-.54-1.09-.54c-2.05,0-6.35.2-6.69.2s-4.64-.2-7.71-.2c-.76,0-1.1.13-1.1.54s.28.41.55.41a12.51,12.51,0,0,1,2.32.21c2.73.75,3.07,1.5,3.07,7Z"/><path class="cls-1" d="M206.93,111.49c-1.05,2.93-2.22,5.15-4.91,5.5-.47.06-1.29.12-1.7.12s-.53.12-.53.35.35.47,1.12.47c2.75,0,6-.18,6.61-.18s3.16.18,4.56.18c.53,0,.88-.12.88-.47s-.18-.35-.58-.35h-.59c-1,0-2.22-.53-2.22-1.7a12.32,12.32,0,0,1,.82-3.92l3.51-10.35a.6.6,0,0,1,.58-.47h12.58a.52.52,0,0,1,.53.35L233,115.41c.35.94,0,1.47-.35,1.58s-.41.18-.41.41.64.35,1.76.41c4,.12,8.3.12,9.18.12.65,0,1.17-.12,1.17-.47s-.23-.35-.58-.35a7.57,7.57,0,0,1-2.34-.35c-1.23-.35-2.93-1.29-5-6.49-3.57-8.9-12.76-33.07-13.64-35.29-.7-1.81-.94-2.11-1.29-2.11s-.58.35-1.28,2.29Zm8.19-12.93c-.17,0-.29-.12-.17-.41l5.15-15.8c.29-.88.58-.88.88,0l5.56,15.8c.05.24.05.41-.24.41Z"/><path class="cls-1" d="M260.05,76.21l7.37.12c5.62.11,7,1.46,7.2,3.21l.05.65c.06.82.18,1,.47,1s.41-.23.41-.76.18-4.68.18-6.43c0-.36,0-.71-.29-.71a14.66,14.66,0,0,0-1.64.29,30.27,30.27,0,0,1-4.16.3H247.7c-.7,0-2.93-.12-4.62-.3a10.53,10.53,0,0,1-2.58-.7c-.23,0-.47.76-.58,1.12s-1.29,5.5-1.29,6.08c0,.35.12.53.29.53s.41-.12.59-.59a9.86,9.86,0,0,1,1-1.81c.94-1.41,2.34-1.82,6-1.87l8.66-.12V101c0,5.62,0,10.24-.29,12.7-.24,1.7-.53,3-1.7,3.22a9.65,9.65,0,0,1-1.76.23c-.35,0-.46.18-.46.35,0,.35.29.47.93.47,1.76,0,5.45-.18,5.74-.18s4,.18,7.19.18c.65,0,.94-.18.94-.47s-.11-.35-.47-.35c-.52,0-1.81-.12-2.63-.23-1.76-.24-2.11-1.52-2.28-3.22-.29-2.46-.29-7.08-.29-12.7Z"/><path class="cls-1" d="M286.94,101c0,5.62,0,10.24-.29,12.7-.24,1.7-.53,3-1.7,3.22a9.66,9.66,0,0,1-1.75.23c-.36,0-.47.18-.47.35,0,.35.29.47.93.47.88,0,2.23-.06,3.4-.12s2.22-.06,2.34-.06c1.69,0,5.62.36,14.45.36,2.28,0,2.75,0,3.16-1.53.29-1.22.76-5.2.76-5.67s0-.88-.35-.88-.41.24-.53.88c-.41,2.4-1.11,3.57-2.63,4.21s-4.09.65-5.62.65c-5.73,0-6.61-.76-6.78-4.8-.06-1.23,0-8,0-10V95.81a.37.37,0,0,1,.41-.41c1,0,6.78.12,8.36.29,2.29.24,2.81,1.23,3,2a5.84,5.84,0,0,1,.24,1.93c0,.29.12.53.41.53s.41-.64.41-1.11.12-2.58.23-3.75c.18-1.93.47-2.92.47-3.27s-.12-.47-.29-.47-.47.29-.88.76-1.34.7-2.75.82-8.54.11-9.3.11c-.3,0-.35-.17-.35-.58V76.56c0-.41.11-.59.35-.59.64,0,7,.06,8,.18,3.16.35,3.75,1,4.16,2a6.35,6.35,0,0,1,.35,2.11c0,.46.12.76.47.76s.35-.35.41-.65c.11-.7.23-3.27.29-3.86.18-1.64.47-2.34.47-2.75s-.06-.53-.24-.53-.52.24-.82.3a16.53,16.53,0,0,1-2.51.29c-1.35.06-13,.06-13.4.06s-4-.18-6.62-.18c-.64,0-.93.12-.93.47s.23.35.47.35a10.75,10.75,0,0,1,2,.18c1.93.41,2.4,1.34,2.51,3.33s.12,3.51.12,12.64Z"/><path class="cls-1" d="M326.36,118.75a15.38,15.38,0,0,0,8.84-2.46,12.14,12.14,0,0,0,5-9.71c0-4.68-1.64-8.31-8.55-13.75L330,91.54c-5.5-4.51-7.14-6.5-7.14-9.83,0-4.27,3.16-6.79,7.2-6.79,5.38,0,7,2.46,7.31,3.1a10.47,10.47,0,0,1,.76,2.93c.06.47.12.76.47.76s.41-.41.41-1.35c0-4,.23-5.91.23-6.2s-.11-.41-.58-.41a9.77,9.77,0,0,1-2-.29,22.7,22.7,0,0,0-5.44-.59c-7.44,0-12.12,4.27-12.12,10.54,0,4,1.41,7.6,7.61,12.69l2.63,2.17c5,4.15,6.73,6.49,6.73,10.53,0,3.75-2.75,7.78-8.36,7.78-3.93,0-7.79-1.63-8.67-6a10.67,10.67,0,0,1-.17-2.17c0-.47-.06-.64-.41-.64s-.41.29-.47.93c-.06.94-.29,3.28-.29,6.21,0,1.58.06,1.81.88,2.22A17.76,17.76,0,0,0,326.36,118.75Z"/><path class="cls-1" d="M379.34,90.11a1.29,1.29,0,0,0,.48-1.78h-6c1.29-4.07,2.25-8,4.51-11.16,1.15-1.63,2.34-2.59,3.74-2.59,1.24,0,2.78.86,2.92,3.74.05.33.24.76.67.76.77,0,2.06-1.48,2.06-3,0-1.92-1.92-3.16-3.93-3.16a10.31,10.31,0,0,0-8.05,4c-2.83,3.35-4.08,7.09-5.32,11.4H366.3a1.21,1.21,0,0,0-.33,1.78h4c-2.3,7.81-3.89,16.06-6.33,24.06-1,3.26-2.16,4-3,4a3.69,3.69,0,0,1-2.88-1.77c-.38-.62-.72-1-1.39-.43a1.93,1.93,0,0,0-.91,1.72,2.88,2.88,0,0,0,3.12,2.45,8.08,8.08,0,0,0,5.46-2.45c1-.91,2.45-3.54,3.79-7.86,1.58-5.27,3-10.59,4.51-15.91.43-1.44.81-3,1.1-3.79Z"/><path class="cls-1" d="M396.44,87.66c-2,0-4.12.72-6.62,3.12a18,18,0,0,0-5.22,10.74c-.29,4.12,1.72,6.37,4.79,6.37,1.3,0,3.88-.24,6.86-3.3a18.2,18.2,0,0,0,5.08-10.89C401.52,90.2,399.84,87.66,396.44,87.66Zm-.34,1.44c1.68,0,2,1.68,1.92,3.17-.09,2.54-2.35,8.86-4.46,11.69-1.53,2.06-2.73,2.5-3.79,2.5-1.39,0-2.06-1.39-2-3.07.14-2.54,2-8.25,4.79-12C394,89.53,395.14,89.1,396.1,89.1Z"/><path class="cls-1" d="M418.39,89.1c.29-.81-.81-1.44-1.44-1.44-2.25,0-7,3.79-8.29,5.71a.67.67,0,0,0,.81.72c1.15-1.2,3.65-3.31,4.56-3.31.38,0,.33.48,0,1.39l-4.41,11.65c-.82,2.11-.58,4.07,1.39,4.07,2.59,0,8.53-6.13,12-10.49l.1,0-3.26,8.78a1.33,1.33,0,0,0,1.2,1.67c2.54,0,7.14-3.78,8.39-6.08a.67.67,0,0,0-.86-.68c-1.25,1.49-3.79,3.74-4.7,3.74-.48,0-.44-.57-.2-1.19,2-5.71,5.13-13.57,5.62-14.87a2.26,2.26,0,0,0-2.35-.86c-1.59,2.93-4.08,8.49-8.44,12.8-2.5,2.45-4.41,4-5.13,4-.53,0-.77-.48-.34-1.63Z"/><path class="cls-1" d="M446.18,89.63c.43-1.1-.1-2-1.25-2-2.39,0-5.32,2-7.14,4.46a.6.6,0,0,0,.58.72c1.58-1.39,3.25-2.4,4.36-2.4.38,0,.38.48.14,1.11s-5.32,14.47-5.56,15.1c-.43,1.1.86,1.24,1.39,1.24s.62-.14.86-.57c2.83-5.27,4.8-9,7.34-12.18s5.46-5.7,6.61-5.7c.72,0,.77.57.77,1.15a11.14,11.14,0,0,1-1,3.5c-1.1,2.39-2.87,7.09-3.88,9.44s-1.15,2.73-1.15,3.17a1.42,1.42,0,0,0,1.15,1.19c2.64,0,6.43-2.3,8.25-5.36,0-.39-.1-.77-.77-.68-1.39,1.68-3.69,3.26-4.51,3.26-.33,0-.28-.43-.09-.91s3.59-8.2,4.46-10.59a13.33,13.33,0,0,0,.76-3.36,2.35,2.35,0,0,0-2.68-2.59c-3.6,0-8.35,5.28-11.75,10.46l-.14-.1Z"/><path class="cls-1" d="M482,89.15a2.92,2.92,0,0,0-2.44-1.49c-2.3,0-5.32,1.35-8.58,4.27-3.79,3.4-6.38,9.11-6.38,12.51,0,1.92,1,3.45,2.88,3.45,4.65,0,8.25-4.65,11.55-9.06l.19,0-1.67,4.75a8.46,8.46,0,0,0-.63,2.73,1.48,1.48,0,0,0,1.54,1.53c2.49,0,6.85-3.93,8.15-6.56a.64.64,0,0,0-.72-.63c-1.49,1.87-4.51,4.32-5.28,4.32-.43,0-.48-.48-.28-1.1.43-1.44,2.68-9.11,7.43-22.2,1.43-4,2.15-5.8,3-8.49l-.19-.28a19,19,0,0,0-5.66.91.62.62,0,0,0-.15.67l1.11.76c.67.44.52,1.3-.43,4Zm-2.54-.05c1.2,0,1.83,1.44,1.25,3.45-.72,2.54-2.11,5.42-5.85,9.26-3.31,3.4-5.75,4.26-6.47,4.26a1,1,0,0,1-.91-1c0-.63,0-1.49,1.48-4.56a41.61,41.61,0,0,1,6.86-9.35C477,90,478.34,89.1,479.44,89.1Z"/><path class="cls-1" d="M508.67,89.63a2.83,2.83,0,0,0-1-1,2.41,2.41,0,0,0-1.15-.29,8.35,8.35,0,0,0-4.31,1.4,20.8,20.8,0,0,0-6.33,6.18c-3.17,4.36-4.22,8.2-4.22,9.3,0,1.34.76,2.68,2.11,2.68,2.25,0,7.14-3.3,10.55-7.52l.14,0-1.58,4.31a5.94,5.94,0,0,0-.48,1.87,1.32,1.32,0,0,0,1.39,1.29c2.63,0,6-2.68,8.05-5.36a.64.64,0,0,0-.67-.63c-2.73,2.4-4.12,3.21-4.94,3.21-.38,0-.62-.28-.33-1.1,1.53-4.36,5.7-15,6.42-16.73a2,2,0,0,0-2.35-.72Zm-3.6.53a2.51,2.51,0,0,1,2.4,1.72,23.17,23.17,0,0,1-6.42,10.36c-2.74,2.49-4.17,3.11-4.65,3.11s-.72-.33-.72-.91c0-3.4,2.92-9.68,6-12.41C503.16,90.68,503.92,90.16,505.07,90.16Z"/><path class="cls-1" d="M533,90.64a1.41,1.41,0,0,0,.58-1.78h-5.23l1.39-4.7a1.6,1.6,0,0,0-1.82-.28l-2.69,4.74-3.83.67a1.22,1.22,0,0,0-.53,1.35h3.74l-4.5,13.23a9.14,9.14,0,0,0-.67,2.73,1.42,1.42,0,0,0,1.29,1.29c2,0,6.52-2.92,9.2-6.9.1-.57-.19-.86-.67-.86-1.58,1.82-4.74,4.31-5.46,4.31-.39,0-.63-.29-.34-1.2l4.32-12.6Z"/><path class="cls-1" d="M537.69,106.17a1.12,1.12,0,0,0,.2,1.29,1,1,0,0,0,.76.43c3.31,0,8.25-4.31,9-5.7a.75.75,0,0,0-.72-.81c-1.63,1.86-4.17,3.54-5,3.54-.38,0-.33-.57-.14-1l5.7-13.62c.58-1.39.58-1.82.29-2.11s-.43-.48-.77-.48c-1.58,0-5.27,1.78-7.91,4.8a.69.69,0,0,0,.63.81c2.39-2,3.64-2.54,4-2.54s.33.38.09.91Zm10.55-30c-1.87,0-2.59,2-2.59,3A1.68,1.68,0,0,0,547.38,81c1.48,0,2.54-1.53,2.54-3A1.63,1.63,0,0,0,548.24,76.16Z"/><path class="cls-1" d="M568.11,87.66c-2,0-4.13.72-6.62,3.12a18,18,0,0,0-5.23,10.74c-.28,4.12,1.73,6.37,4.8,6.37,1.29,0,3.88-.24,6.85-3.3A18.29,18.29,0,0,0,573,93.7C573.19,90.2,571.51,87.66,568.11,87.66Zm-.34,1.44c1.68,0,2,1.68,1.92,3.17-.1,2.54-2.35,8.86-4.46,11.69-1.53,2.06-2.73,2.5-3.79,2.5-1.39,0-2.06-1.39-2-3.07.14-2.54,2-8.25,4.79-12C565.66,89.53,566.81,89.1,567.77,89.1Z"/><path class="cls-1" d="M589.29,89.63c.43-1.1-.1-2-1.24-2-2.4,0-5.33,2-7.15,4.46a.6.6,0,0,0,.58.72c1.58-1.39,3.26-2.4,4.36-2.4.38,0,.38.48.14,1.11s-5.32,14.47-5.56,15.1c-.43,1.1.86,1.24,1.39,1.24s.62-.14.86-.57c2.83-5.27,4.8-9,7.34-12.18s5.47-5.7,6.62-5.7c.72,0,.76.57.76,1.15a11.39,11.39,0,0,1-1,3.5c-1.11,2.39-2.88,7.09-3.89,9.44s-1.15,2.73-1.15,3.17a1.42,1.42,0,0,0,1.15,1.19c2.64,0,6.43-2.3,8.25-5.36,0-.39-.1-.77-.77-.68-1.39,1.68-3.69,3.26-4.5,3.26-.34,0-.29-.43-.1-.91S599,96,599.84,93.61a13.4,13.4,0,0,0,.77-3.36,2.36,2.36,0,0,0-2.69-2.59c-3.6,0-8.34,5.28-11.75,10.46L586,98Z"/><path class="cls-1" d="M5.94,33.19c0,6.55,0,11.94-.34,14.81-.27,2-.62,3.48-2,3.76a11.19,11.19,0,0,1-2,.27c-.41,0-.55.21-.55.41,0,.41.35.55,1.1.55,2.05,0,6.35-.21,6.69-.21.54,0,7.51.41,9.08.41,11.67,0,17.41-7.58,17.41-14.88,0-8-6.76-12.84-11.81-14.41,3.21-3.34,6.41-6.69,6.41-12.29,0-3.41-2.45-10.24-13.65-10.24-3.14,0-5.8.21-7.44.21-.34,0-4.64-.21-7.72-.21C.34,1.37,0,1.51,0,1.92s.27.41.55.41a12.52,12.52,0,0,1,2.32.2C5.12,3,5.67,4.1,5.8,6.42s.14,4.1.14,14.75ZM11.4,4.38c0-.41.21-.62.82-.76a15.46,15.46,0,0,1,3.28-.34c6.69,0,9.22,6.08,9.22,11.75a10.56,10.56,0,0,1-2.46,6.89c-1.44,1.64-2.39,1.78-6.21,1.78a23.59,23.59,0,0,1-4.17-.28c-.34-.13-.48-.27-.48-.75ZM11.4,26c0-.34.14-.48.41-.48,1,0,4.44,0,5.33.14a11.21,11.21,0,0,1,5.66,2c5.26,3.62,6.63,9.55,6.63,13.65,0,7.72-5.94,9.7-9.63,9.7a16,16,0,0,1-6-1c-2.12-1-2.12-2-2.32-5.32-.07-1-.07-9.49-.07-14.75Z"/><path class="cls-1" d="M55.22,25.69c0-9.13,0-10.77.12-12.64.12-2.05.59-3,2.17-3.34A9.3,9.3,0,0,1,59,9.54c.23,0,.47-.12.47-.35s-.29-.47-.94-.47c-1.75,0-5.44.17-5.73.17s-4-.17-5.91-.17c-.65,0-.94.11-.94.47s.23.35.47.35a7.89,7.89,0,0,1,1.81.23c1.29.29,1.88,1.29,2,3.28s.12,3.51.12,12.64V36c0,5.61,0,10.24-.29,12.7-.24,1.69-.53,3-1.7,3.21a8.87,8.87,0,0,1-1.76.24c-.35,0-.46.17-.46.35,0,.35.29.47.93.47,1.76,0,5.44-.18,5.74-.18s4,.18,7.19.18c.65,0,.94-.18.94-.47s-.12-.35-.47-.35a25,25,0,0,1-2.63-.24c-1.76-.23-2.11-1.52-2.28-3.21-.3-2.46-.3-7.09-.3-12.7Z"/><path class="cls-1" d="M80.6,25.69c0-9.13,0-10.77.12-12.64.12-2.05.59-3,2.28-3.34a15,15,0,0,1,1.94-.17c.23,0,.46-.12.46-.35s-.29-.47-.93-.47c-1.76,0-6,.17-6.32.17s-4-.17-6.62-.17c-.64,0-.93.11-.93.47s.23.35.47.35a11.49,11.49,0,0,1,2,.17c1.94.41,2.4,1.35,2.52,3.34s.12,3.51.12,12.64V36c0,5.61,0,10.24-.29,12.7-.24,1.69-.53,3-1.7,3.21a8.87,8.87,0,0,1-1.76.24c-.35,0-.46.17-.46.35,0,.35.29.47.93.47.88,0,2.17-.06,3.34-.12s2.16-.06,2.4-.06c3.39,0,7.25.35,15.68.35,3.1,0,3.28-.23,3.69-1.58a37.92,37.92,0,0,0,.87-5.85c0-.64,0-.88-.35-.88s-.47.3-.52.76A8.16,8.16,0,0,1,96,49.09c-1.4,1.7-4,1.76-7.08,1.76-4.56,0-6.08-.41-7-1.35S80.6,44.71,80.6,36.1Z"/><path class="cls-1" d="M113.46,25.69c0-9.13,0-10.77.11-12.64.12-2.05.59-3,2.29-3.34a14.69,14.69,0,0,1,1.93-.17c.23,0,.47-.12.47-.35s-.29-.47-.94-.47c-1.75,0-6,.17-6.32.17s-4-.17-6.61-.17c-.64,0-.94.11-.94.47s.24.35.47.35a11.61,11.61,0,0,1,2,.17c1.93.41,2.4,1.35,2.52,3.34s.11,3.51.11,12.64V36c0,5.61,0,10.24-.29,12.7-.23,1.69-.52,3-1.7,3.21a8.67,8.67,0,0,1-1.75.24c-.35,0-.47.17-.47.35,0,.35.29.47.94.47.87,0,2.16-.06,3.33-.12s2.17-.06,2.4-.06c3.4,0,7.26.35,15.68.35,3.1,0,3.28-.23,3.69-1.58a37,37,0,0,0,.88-5.85c0-.64-.06-.88-.35-.88s-.47.3-.53.76a8.14,8.14,0,0,1-1.52,3.51c-1.41,1.7-4,1.76-7.08,1.76-4.57,0-6.09-.41-7-1.35s-1.29-4.79-1.29-13.4Z"/><path class="cls-1" d="M152.75,47.53a16.47,16.47,0,0,0,11.86-5.39,21,21,0,0,0,5-10.67c.1-.94.2-3.31.2-4.2a22.88,22.88,0,0,1,3.41,3.5.77.77,0,0,0,1.18.3,12.44,12.44,0,0,1,3.71-1.23,2,2,0,0,0,1.28-.5,3.25,3.25,0,0,0,.94-2.32c0-1.29-.49-2.77-1.82-2.77A1.5,1.5,0,0,0,177,25.49a4.22,4.22,0,0,0,.2.74,3.68,3.68,0,0,1,.2,1.23c0,.84-.49,1.54-1,1.54-.89,0-1-.25-2.17-1.29-2.43-2.17-3.86-3.85-6.58-3.85a8.81,8.81,0,0,0-4.89,2c-2.47,2-3.36,4.25-3.36,5.54a2,2,0,0,0,2.13,2A1.45,1.45,0,0,0,163.13,32a7.68,7.68,0,0,0-.35-1.38,7.78,7.78,0,0,1-.39-1.63c0-1.69,2.07-3.17,3.6-3.17a4.12,4.12,0,0,1,2.57.84,19.79,19.79,0,0,1-2.66,10c-2.87,5.29-7.91,8.06-12,8.06-3.81,0-8.85-2.13-8.75-8.45v-.4c5.14-3.5,13.44-9.78,17.54-13.83,4.6-4.5,6.23-7.56,6.23-10.13,0-1.93-1.14-2.62-2.27-2.62a2,2,0,0,0-2,2c0,.55.15.7.54,1.09a2,2,0,0,1,.6,1.49A8.69,8.69,0,0,1,164,18a55.66,55.66,0,0,1-7,7.07,3.2,3.2,0,0,0-3.11-1.92c-1.09,0-4.15.49-7.36,3.85a15.2,15.2,0,0,0-4.75,10.62C141.83,42.73,144.94,47.53,152.75,47.53ZM145.24,34a13.49,13.49,0,0,1,2.67-6.08c1.48-1.93,3.11-2.67,3.8-2.67a1.5,1.5,0,0,1,1.63,1.53c0,.1,0,.74,0,1.19C151.66,29.39,148.75,31.56,145.24,34Z"/><path class="cls-1" d="M244.46,1.84c-.14-1.3-.34-1.84-.82-1.84s-.75.48-1,1.09L222.54,44,201.65,1c-.34-.75-.62-1-1-1s-.62.48-.76,1.23L195,45.74c-.28,2.6-.48,5.26-2.73,5.67a8.59,8.59,0,0,1-2,.21c-.34,0-.68.13-.68.34,0,.47.47.61,1.16.61,1.84,0,5.12-.2,5.73-.2s3.83.2,6.35.2c.82,0,1.23-.14,1.23-.61,0-.21-.27-.34-.55-.34a12.25,12.25,0,0,1-2.59-.35,2.18,2.18,0,0,1-1.78-2.11c0-1.16,0-2.39.07-3.48L201.85,14h.28c.75,1.84,8.39,18.23,9,19.46.34.68,6.21,12.49,8,15.83,1.3,2.46,1.63,3.14,2.11,3.14s.82-.61,2.26-3.61l16.72-35.51h.21l3.28,35.23c.13,1.23.07,2.39-.28,2.46s-.47.21-.47.48.34.55,1.91.68c2.52.21,9.9.41,11.4.41.82,0,1.43-.2,1.43-.61s-.2-.34-.54-.34a14.67,14.67,0,0,1-4.44-.62c-2.94-1-3.42-4.78-3.69-7.24Z"/><path class="cls-1" d="M267.38,35.57c0,5.62,0,10.24-.29,12.7-.23,1.7-.52,3-1.69,3.22a8.85,8.85,0,0,1-1.76.23c-.35,0-.47.18-.47.35,0,.36.29.47.94.47.88,0,2.22-.06,3.39-.11s2.23-.06,2.34-.06c1.7,0,5.62.35,14.46.35,2.28,0,2.75,0,3.16-1.52.29-1.23.76-5.21.76-5.68s0-.88-.35-.88-.41.24-.53.88c-.41,2.4-1.11,3.57-2.63,4.21s-4.1.65-5.62.65c-5.74,0-6.61-.76-6.79-4.8-.06-1.23,0-8,0-10V30.42a.37.37,0,0,1,.41-.41c1,0,6.79.12,8.37.3,2.28.23,2.81,1.22,3,2a5.87,5.87,0,0,1,.24,1.93c0,.3.11.53.4.53s.41-.64.41-1.11.12-2.58.24-3.75c.17-1.93.47-2.92.47-3.27s-.12-.47-.3-.47-.46.29-.87.76-1.35.7-2.75.82-8.55.12-9.31.12c-.29,0-.35-.18-.35-.59V11.17c0-.41.12-.58.35-.58.65,0,7,.05,8,.17,3.16.35,3.74,1.05,4.15,2a6.1,6.1,0,0,1,.35,2.11c0,.47.12.76.47.76s.35-.35.41-.64c.12-.71.24-3.28.3-3.87.17-1.64.46-2.34.46-2.75s-.06-.52-.23-.52-.53.23-.82.29a15.47,15.47,0,0,1-2.52.29c-1.34.06-13,.06-13.4.06s-4-.18-6.61-.18c-.64,0-.94.12-.94.47s.24.35.47.35a10.67,10.67,0,0,1,2,.18c1.93.41,2.4,1.34,2.52,3.33s.11,3.52.11,12.64Z"/><path class="cls-1" d="M306.92,25.27c0-9.12,0-10.76.12-12.64.11-2,.58-3,2.28-3.33a13.37,13.37,0,0,1,1.93-.18c.23,0,.47-.11.47-.35s-.3-.47-.94-.47c-1.75,0-6,.18-6.32.18s-4-.18-6.61-.18c-.64,0-.94.12-.94.47s.24.35.47.35a10.67,10.67,0,0,1,2,.18c1.93.41,2.4,1.34,2.51,3.33s.12,3.52.12,12.64v10.3c0,5.62,0,10.24-.29,12.7-.23,1.7-.53,3-1.7,3.22a8.75,8.75,0,0,1-1.75.23c-.35,0-.47.18-.47.35,0,.36.29.47.94.47.87,0,2.16-.06,3.33-.11s2.17-.06,2.4-.06c3.4,0,7.26.35,15.68.35,3.1,0,3.28-.24,3.69-1.58a37.28,37.28,0,0,0,.88-5.85c0-.65-.06-.88-.35-.88s-.47.29-.53.76a8.24,8.24,0,0,1-1.52,3.51c-1.41,1.7-4,1.76-7.08,1.76-4.57,0-6.09-.41-7-1.35s-1.29-4.8-1.29-13.4Z"/><path class="cls-1" d="M341.18,25.27c0-9.12,0-10.76.12-12.64.12-2,.58-3,2.16-3.33a8.64,8.64,0,0,1,1.47-.18c.23,0,.47-.11.47-.35s-.29-.47-.94-.47c-1.76,0-5.44.18-5.74.18s-4-.18-5.9-.18c-.65,0-.94.12-.94.47s.23.35.47.35a7.45,7.45,0,0,1,1.81.24c1.29.29,1.87,1.28,2,3.27s.12,3.52.12,12.64v10.3c0,5.62,0,10.24-.3,12.7-.23,1.7-.52,3-1.69,3.22a8.85,8.85,0,0,1-1.76.23c-.35,0-.47.18-.47.35,0,.36.3.47.94.47,1.76,0,5.44-.17,5.73-.17s4,.17,7.2.17c.65,0,.94-.17.94-.47s-.12-.35-.47-.35a24.7,24.7,0,0,1-2.63-.23c-1.76-.24-2.11-1.52-2.29-3.22-.29-2.46-.29-7.08-.29-12.7Z"/><path class="cls-1" d="M362.47,16.55c1.87,2.11,8.48,9.48,15.27,16.8C383.94,40,392.37,48.62,393,49.21c3.1,3.1,3.81,3.74,4.27,3.74s.53-.29.53-4.15l.12-34.29c0-3.51.23-4.8,2.16-5.21a5.07,5.07,0,0,1,1.41-.18c.41,0,.64-.17.64-.41s-.41-.41-1.05-.41c-2.4,0-4.33.18-5,.18S392.66,8.3,390,8.3c-.7,0-1.17.06-1.17.41s.06.41.47.41a15.2,15.2,0,0,1,2.86.3c1.82.46,2.23,1.75,2.28,5.56l.65,29.72c-1.87-1.93-8.25-9.07-14-15.27-9-9.66-17.74-19.08-18.61-20.07-.59-.59-1.58-1.88-2.05-1.88s-.65.65-.65,2.93l0,33.53c0,5.33-.3,7-1.76,7.43a8.49,8.49,0,0,1-2.4.35c-.29,0-.47.12-.47.35,0,.41.35.47.94.47,2.63,0,5.09-.17,5.62-.17s2.87.17,6.2.17c.7,0,1-.11,1-.47s-.17-.35-.46-.35a13,13,0,0,1-2.93-.35c-1.58-.47-2.17-2-2.28-6.79Z"/><path class="cls-1" d="M414.57,35.57c0,5.62,0,10.24-.3,12.7-.23,1.7-.52,3-1.69,3.22a8.85,8.85,0,0,1-1.76.23c-.35,0-.47.18-.47.35,0,.36.29.47.94.47,1.75,0,5.44-.17,5.73-.17.59,0,8,.7,13,.7,9.95,0,15.22-4.1,17.73-6.73a23.9,23.9,0,0,0,6.32-16.5A20.92,20.92,0,0,0,448.39,15c-7-7.2-17.67-6.68-23.47-6.68-3.51,0-7.19.18-7.9.18-.29,0-4-.18-6.61-.18-.64,0-.93.12-.93.47s.23.35.46.35a10.67,10.67,0,0,1,2,.18c1.93.41,2.4,1.34,2.52,3.33s.12,3.52.12,12.64Zm4.91-11.23c0-4.51,0-10.48.06-12.47a1.06,1.06,0,0,1,.7-1.17,15.9,15.9,0,0,1,3.81-.41c7,0,13.63.82,19.13,6.62a20.9,20.9,0,0,1,5.62,14.74c0,5.39-1.64,11-4.68,14a19.67,19.67,0,0,1-13.93,5.44c-6.9,0-9.19-1.23-9.95-2.34-.47-.64-.58-3-.64-4.45-.06-1.11-.12-6.5-.12-12.7Z"/><path class="cls-1" d="M461,46.11c-1.06,2.92-2.23,5.14-4.92,5.5-.47,0-1.29.11-1.7.11s-.52.12-.52.35.35.47,1.11.47c2.75,0,6-.17,6.61-.17s3.16.17,4.56.17c.53,0,.88-.11.88-.47s-.17-.35-.58-.35h-.59c-1,0-2.22-.52-2.22-1.69a12.21,12.21,0,0,1,.82-3.92L468,35.75c.12-.3.29-.47.58-.47h12.59a.51.51,0,0,1,.52.35L487.1,50c.36.93,0,1.46-.35,1.58s-.41.17-.41.41.65.35,1.76.41c4,.11,8.31.11,9.19.11.64,0,1.17-.11,1.17-.47s-.24-.35-.59-.35a7.65,7.65,0,0,1-2.34-.35c-1.23-.35-2.93-1.29-5-6.49-3.57-8.9-12.76-33.07-13.64-35.29-.7-1.81-.93-2.11-1.28-2.11s-.59.36-1.29,2.29Zm8.19-12.94c-.18,0-.3-.11-.18-.41L474.17,17c.29-.87.59-.87.88,0l5.56,15.8c.06.24.06.41-.24.41Z"/></g></g></svg>