<svg xmlns="http://www.w3.org/2000/svg" viewBox="0 0 100.38 100.34"><defs><style>.cls-1{fill:#cd8c2a;}.cls-2{fill:#48773c;}.cls-3{fill:#f36e24;}.cls-4{fill:#e01a83;}.cls-5{fill:#007dbb;}.cls-6{fill:#d19f2a;}.cls-7{fill:#f99d25;}.cls-8{fill:#5fbb46;}.cls-9{fill:#1a3667;}.cls-10{fill:#fdb714;}.cls-11{fill:#8f1838;}.cls-12{fill:#2c9a47;}.cls-13{fill:#c22033;}.cls-14{fill:#ea1d2d;}.cls-15{fill:#ef412a;}.cls-16{fill:#01558a;}.cls-17{fill:#00add8;}.cls-18{fill:none;}</style></defs><title>favicon</title><g id="Layer_2" data-name="Layer 2"><g id="Layer_1-2" data-name="Layer 1"><path class="cls-1" d="M9.57,79.18c-.14,0-.18-.16-.24-.25a50.64,50.64,0,0,1-2.94-4.7,51.64,51.64,0,0,1-3.69-8.5c-.1-.32-.06-.43.27-.53q10.15-2.89,20.32-5.82c.25-.08.34,0,.42.22a27.66,27.66,0,0,0,3.06,6.13c.14.2.12.3-.07.44L9.79,79Z"/><path class="cls-2" d="M.25,50.08c0-.85,0-1.85.08-2.85,0-.23.08-.3.31-.27l5.91.52,5.91.53,6.72.61,2.67.23c.22,0,.28.08.27.29A26.12,26.12,0,0,0,22.69,56c.07.3-.06.35-.28.41l-17.8,5.1L2,62.23c-.22.06-.32.05-.38-.21A51.22,51.22,0,0,1,.31,52.64C.27,51.84.25,51,.25,50.08Z"/><path class="cls-3" d="M50.54,100.25a49.6,49.6,0,0,1-7.28-.49c-.29,0-.3-.13-.26-.37q1.57-8.26,3.12-16.52c.28-1.48.56-3,.83-4.43,0-.2.11-.24.29-.22A26.29,26.29,0,0,0,54,78.15c.28,0,.4,0,.46.32q1.44,7.69,2.9,15.39c.34,1.82.67,3.64,1,5.45.05.24,0,.3-.23.33-1.24.2-2.49.35-3.74.45S51.66,100.26,50.54,100.25Z"/><path class="cls-4" d="M43.87,77.85c-.17.93-.35,1.85-.52,2.78L40.86,93.87c-.31,1.64-.63,3.29-.93,4.94,0,.25-.11.34-.4.27a50.58,50.58,0,0,1-13.77-5.26c-.24-.14-.26-.23-.12-.46q5.57-9,11.11-18c.18-.28.29-.3.58-.15a27.68,27.68,0,0,0,6.22,2.36C43.68,77.63,43.91,77.58,43.87,77.85Z"/><path class="cls-5" d="M22.24,45.73l-6.3-.56-5.87-.53-6.61-.59L.93,43.82c-.22,0-.28-.06-.25-.28A50.2,50.2,0,0,1,4.82,29.3c.12-.27.23-.28.48-.15l12,6,6.92,3.44c.23.11.28.2.17.46a26.85,26.85,0,0,0-1.92,6.46C22.44,45.74,22.44,45.74,22.24,45.73Z"/><path class="cls-6" d="M82.91,12.28c0,.12-.1.17-.16.24L75.81,20.1c-2.45,2.68-4.91,5.35-7.35,8-.21.23-.34.24-.58,0a26.62,26.62,0,0,0-5.55-3.47c-.3-.13-.3-.27-.2-.53Q66,14.3,69.74,4.41c.09-.24.18-.26.4-.16a50.21,50.21,0,0,1,12.6,7.87Z"/><path class="cls-7" d="M34.26,73.46l-.17.29L25.51,87.62c-.85,1.38-1.7,2.75-2.54,4.13-.13.21-.21.24-.42.1a50.86,50.86,0,0,1-10.94-9.92c-.17-.21-.12-.28.06-.42l11.47-8.7,5.44-4.15c.19-.14.28-.16.45,0a27.73,27.73,0,0,0,5,4.54C34.12,73.29,34.23,73.33,34.26,73.46Z"/><path class="cls-8" d="M15.82,14.05a1.32,1.32,0,0,0,.13.2L22,20.91l6.78,7.43c.5.55,1,1.11,1.51,1.65.13.14.12.23,0,.36a26.79,26.79,0,0,0-4.17,5.36c-.14.23-.25.19-.44.09l-10.09-5q-4.42-2.22-8.87-4.42c-.28-.14-.3-.23-.16-.5a50.69,50.69,0,0,1,9-11.63A.52.52,0,0,1,15.82,14.05Z"/><path class="cls-9" d="M49,11.12V21.53c0,.61,0,.5-.52.53a28,28,0,0,0-6.3,1.15c-.29.09-.37,0-.47-.23Q37.85,13.1,34,3.23c-.1-.25-.09-.35.19-.44A50.58,50.58,0,0,1,44.8.45C46.06.31,47.31.22,48.56.17c.31,0,.41.06.41.39Q49,5.84,49,11.12Z"/><path class="cls-10" d="M89.53,81.22c-.07.09-.12.17-.18.24a50.42,50.42,0,0,1-8,8c-.91.72-1.85,1.4-2.8,2.08-.23.16-.32.14-.47-.1Q72.73,82.68,67.35,74c-.14-.24-.28-.48-.44-.72s-.09-.22.06-.33a27.51,27.51,0,0,0,5-4.71c.16-.18.25-.08.37,0L78,72.52,89.23,81C89.33,81.05,89.43,81.14,89.53,81.22Z"/><path class="cls-11" d="M64.1,74.78c.15,0,.17.15.23.25L69,82.6,75.41,93c.24.39.24.39-.16.62a49.56,49.56,0,0,1-13.46,5.35c-.24.06-.32,0-.37-.22q-1-5.31-2-10.62t-2-10.38c0-.2,0-.26.21-.3A27.9,27.9,0,0,0,64,74.85Z"/><path class="cls-12" d="M94.36,26.5c0,.16-.15.16-.25.21l-5.93,3q-6.51,3.24-13,6.5c-.25.12-.36.11-.51-.15a26.72,26.72,0,0,0-3.93-5.23c-.17-.18-.22-.28,0-.5Q77.88,22.49,85,14.66c.19-.2.28-.19.47,0a50.65,50.65,0,0,1,8.74,11.63Z"/><path class="cls-13" d="M78.48,46c-.23.06-.31,0-.34-.23a26.41,26.41,0,0,0-1.8-6.36c-.1-.25-.07-.35.17-.47q9.49-4.72,19-9.47c.26-.12.35-.09.46.16a49.87,49.87,0,0,1,3.74,12.42c.09.55.17,1.1.26,1.65,0,.2,0,.28-.24.3l-8.2.77-9.24.89Z"/><path class="cls-14" d="M52.08,11.13q0-5.28,0-10.56c0-.33.1-.41.41-.39A50.71,50.71,0,0,1,66.69,2.89c.22.08.24.16.16.37L59.2,23.14c-.07.19-.12.28-.37.2a26.61,26.61,0,0,0-6.38-1.25c-.3,0-.38-.11-.38-.41Q52.08,16.4,52.08,11.13Z"/><path class="cls-15" d="M100.38,50.23A53.19,53.19,0,0,1,99,61.89c-.07.29-.17.36-.47.27q-10.17-2.94-20.35-5.84c-.25-.08-.32-.15-.26-.43a27.17,27.17,0,0,0,.58-6.42c0-.27.09-.32.33-.34l8-.76,7.06-.65c2-.19,4.08-.38,6.12-.59.22,0,.28,0,.28.24C100.29,48.33,100.34,49.28,100.38,50.23Z"/><path class="cls-16" d="M38.85,24.34c0,.16-.16.16-.25.2a28.76,28.76,0,0,0-5.13,3c-.22.16-.43.48-.67.44s-.37-.35-.55-.55l-14-15.32c-.17-.18-.15-.27,0-.42A50.42,50.42,0,0,1,30.7,4.14c.23-.1.3-.06.39.17q3.82,9.9,7.67,19.8Z"/><path class="cls-17" d="M98,65.35c-.13.4-.24.75-.36,1.1a50.7,50.7,0,0,1-6,11.88c-.18.26-.28.35-.58.12q-8.4-6.37-16.83-12.7c-.21-.16-.26-.27-.1-.51a26.45,26.45,0,0,0,2.75-5.66c.1-.29.22-.32.49-.24l11.27,3.25,9,2.6C97.8,65.22,98,65.2,98,65.35Z"/><circle class="cls-18" cx="50.17" cy="50.17" r="50.17"/></g></g></svg>