<svg xmlns="http://www.w3.org/2000/svg" xmlns:xlink="http://www.w3.org/1999/xlink" viewBox="0 0 53.6 46.4"><defs><style>.cls-1{fill:none;}.cls-2{clip-path:url(#clip-path);}</style><clipPath id="clip-path" transform="translate(0)"><rect class="cls-1" width="53.6" height="46.4"/></clipPath></defs><title>list-icon</title><g id="Layer_2" data-name="Layer 2"><g id="Layer_1-2" data-name="Layer 1"><g class="cls-2"><path d="M12,22.2H0V38.5a7.92,7.92,0,0,0,7.9,7.9H43.5A10.07,10.07,0,0,0,53.6,36.3V0H12ZM3.7,38.6V25.9H12V38.5a4.15,4.15,0,0,1-8.3.1m12-34.9H49.8V36.3a6.44,6.44,0,0,1-6.4,6.4H14.5a7.3,7.3,0,0,0,1.2-4.1V3.7Z" transform="translate(0)"/><path d="M24.3,13.7h8.8A1.9,1.9,0,0,0,35,11.8,1.81,1.81,0,0,0,33.1,10H24.3a1.9,1.9,0,0,0-1.9,1.9,1.76,1.76,0,0,0,1.9,1.8" transform="translate(0)"/><path d="M24.3,20.9H41.5A1.9,1.9,0,0,0,43.4,19a1.84,1.84,0,0,0-1.9-1.9H24.3A1.9,1.9,0,0,0,22.4,19a1.84,1.84,0,0,0,1.9,1.9" transform="translate(0)"/><path d="M24.3,28.1H41.5a1.9,1.9,0,0,0,1.9-1.9,1.84,1.84,0,0,0-1.9-1.9H24.3a1.9,1.9,0,0,0-1.9,1.9,1.84,1.84,0,0,0,1.9,1.9" transform="translate(0)"/><path d="M24.3,35.3H41.5a1.9,1.9,0,0,0,1.9-1.9,1.84,1.84,0,0,0-1.9-1.9H24.3a1.9,1.9,0,0,0-1.9,1.9,1.84,1.84,0,0,0,1.9,1.9" transform="translate(0)"/></g></g></g></svg>