<svg xmlns="http://www.w3.org/2000/svg" viewBox="0 0 578.01 288.91"><defs><style>.cls-1{fill:#cd8c2a;}.cls-2{fill:#48773c;}.cls-3{fill:#f36e24;}.cls-4{fill:#e01a83;}.cls-5{fill:#007dbb;}.cls-6{fill:#d19f2a;}.cls-7{fill:#f99d25;}.cls-8{fill:#5fbb46;}.cls-9{fill:#1a3667;}.cls-10{fill:#fdb714;}.cls-11{fill:#8f1838;}.cls-12{fill:#2c9a47;}.cls-13{fill:#c22033;}.cls-14{fill:#ea1d2d;}.cls-15{fill:#ef412a;}.cls-16{fill:#01558a;}.cls-17{fill:#00add8;}.cls-18{fill:none;}</style></defs><title>aksha-dialogues-logo</title><g id="Layer_2" data-name="Layer 2"><g id="Layer_1-2" data-name="Layer 1"><path d="M218.11,77.8l-30.48,37.76,48.58,85.9h-14l-42-76.79-11,13.68v63.11h-11.4V0h11.4V120.26L203.58,77.8Z"/><path d="M327.68,0h11.4v84.2a47.72,47.72,0,0,1,34.48-13.82q21.79,0,35.54,13.75t14.18,34.55v82.77h-11.4V119.83A36.25,36.25,0,0,0,400.49,92.9a38.37,38.37,0,0,0-53.86-.14,34.19,34.19,0,0,0-7.55,10.4v98.3h-11.4Z"/><path d="M566.61,77.8V95.33a85,85,0,0,0-7.13-8.41q-20.22-20.23-49-20.23-28.5,0-48.8,20.23t-20.3,49q0,28.5,20.3,48.79T510.48,205q28.77,0,49-20.38a84.86,84.86,0,0,0,7.13-8.4v25.21H578V77.8ZM510.12,195a58.18,58.18,0,0,1,0-116.36c1.11,0,2.2,0,3.29.1A54.33,54.33,0,0,1,545,90.26,58.17,58.17,0,0,1,510.12,195Z"/><path d="M298.76,138.92q-6.84-6.84-22.94-15.53-10.12-6.4-13.25-9.69a18.38,18.38,0,0,1,13-31.34q7.7,0,12.4,4.84a22,22,0,0,1,5.23,10.36h10.58V97q0-10.12-7.83-18Q287.78,71,275.53,71a28.4,28.4,0,0,0-20.94,8.77,29.66,29.66,0,0,0,0,42q5.57,5.56,20,13.4,12.24,7.83,16.24,11.82a24.08,24.08,0,0,1,7.55,17.81,25.66,25.66,0,0,1-25.5,25.64A24.37,24.37,0,0,1,255,182.87a24.73,24.73,0,0,1-7.35-15.6H236.21q0,12.82,10.69,23.58a36.62,36.62,0,0,0,51.86,0,36.9,36.9,0,0,0,0-51.93Z"/><path d="M125.23,77.8V95.33a86.25,86.25,0,0,0-7.12-8.41q-20.23-20.23-49-20.23-28.5,0-48.8,20.23T0,135.93q0,28.5,20.3,48.79T69.1,205q28.77,0,49-20.38a86.13,86.13,0,0,0,7.12-8.4v25.21h11.4V77.8ZM68.47,194.19A58,58,0,1,1,118.59,107l.51.89.46.83a52.44,52.44,0,0,1,2.33,4.84l.06.13c.28.67.54,1.34.79,2l.33.89,0,0a58,58,0,0,1-54.62,77.55Z"/><path class="cls-1" d="M27.69,165.49c-.14,0-.17-.16-.24-.25A50.46,50.46,0,0,1,20.82,152c-.1-.32-.06-.43.27-.53q10.17-2.89,20.32-5.82c.25-.08.34,0,.42.22A27.27,27.27,0,0,0,44.9,152c.13.2.12.3-.07.44L27.91,165.33Z"/><path class="cls-2" d="M18.38,136.39c0-.85,0-1.85.07-2.85,0-.23.08-.3.31-.27l5.92.52,5.91.53,6.71.61,2.68.23c.21,0,.27.08.26.29a26.56,26.56,0,0,0,.58,6.83c.06.3-.06.35-.28.41l-17.8,5.1c-.87.25-1.73.49-2.59.75-.22.06-.32.05-.38-.21A51.22,51.22,0,0,1,18.43,139C18.39,138.14,18.37,137.34,18.38,136.39Z"/><path class="cls-3" d="M68.66,186.56a51,51,0,0,1-7.28-.49c-.28,0-.3-.13-.25-.37q1.56-8.26,3.11-16.53c.28-1.47.56-2.94.83-4.42,0-.21.12-.24.3-.22a26.3,26.3,0,0,0,6.75-.07c.27,0,.4,0,.45.32q1.44,7.69,2.9,15.39c.34,1.82.67,3.63,1,5.45,0,.24,0,.3-.23.33-1.25.19-2.49.35-3.75.45S69.78,186.57,68.66,186.56Z"/><path class="cls-4" d="M62,164.16c-.18.93-.36,1.85-.53,2.78L59,180.18c-.31,1.64-.62,3.29-.92,4.94-.05.25-.11.34-.4.27a50.34,50.34,0,0,1-13.77-5.26c-.25-.14-.26-.23-.12-.46q5.56-9,11.11-18c.17-.28.29-.3.58-.15a27.6,27.6,0,0,0,6.21,2.36C61.81,163.94,62,163.89,62,164.16Z"/><path class="cls-5" d="M40.36,132l-6.29-.56L28.19,131l-6.6-.59-2.54-.23c-.21,0-.28-.06-.25-.28a50.52,50.52,0,0,1,4.14-14.24c.13-.27.23-.28.48-.15l12,6,6.92,3.44c.23.11.29.2.17.46a27.79,27.79,0,0,0-1.92,6.46C40.56,132.05,40.56,132.05,40.36,132Z"/><path class="cls-6" d="M101,98.59c0,.12-.1.17-.16.24l-6.93,7.58c-2.46,2.68-4.91,5.35-7.36,8-.21.23-.33.24-.58,0A26.11,26.11,0,0,0,80.45,111c-.29-.13-.29-.27-.19-.53q3.81-9.88,7.61-19.77c.09-.24.17-.26.39-.16a50.26,50.26,0,0,1,12.61,7.87C100.93,98.48,101,98.54,101,98.59Z"/><path class="cls-7" d="M52.38,159.77l-.17.29-8.57,13.87c-.85,1.38-1.71,2.75-2.55,4.13-.13.21-.21.24-.42.09a51,51,0,0,1-10.94-9.91c-.17-.21-.11-.28.07-.42l11.46-8.7Q44,157.05,46.71,155c.18-.14.28-.16.44,0a28.42,28.42,0,0,0,5,4.54C52.24,159.6,52.35,159.64,52.38,159.77Z"/><path class="cls-8" d="M33.94,100.36a.92.92,0,0,0,.14.2l6.06,6.66,6.78,7.43,1.51,1.65c.14.14.12.22,0,.36A26.48,26.48,0,0,0,44.24,122c-.14.23-.25.19-.44.09l-10.08-5c-3-1.48-5.91-3-8.88-4.42-.28-.14-.3-.23-.15-.5a50.65,50.65,0,0,1,9-11.63A.56.56,0,0,1,33.94,100.36Z"/><path class="cls-9" d="M67.09,97.43v10.41c0,.61,0,.5-.53.53a27.53,27.53,0,0,0-6.3,1.15c-.28.09-.37,0-.47-.23Q56,99.41,52.13,89.53c-.09-.24-.08-.34.19-.43a49.57,49.57,0,0,1,10.61-2.34c1.25-.14,2.5-.23,3.76-.28.3,0,.41.06.41.39C67.08,90.39,67.09,93.91,67.09,97.43Z"/><path class="cls-10" d="M107.66,167.53c-.08.09-.13.17-.19.24a50.29,50.29,0,0,1-8,7.94c-.92.73-1.86,1.41-2.81,2.09-.23.16-.32.13-.47-.1Q90.87,169,85.48,160.28c-.15-.23-.29-.48-.45-.71s-.09-.22.06-.33a27.9,27.9,0,0,0,5-4.71c.15-.19.24-.08.36,0l5.69,4.29,11.22,8.46Z"/><path class="cls-11" d="M82.23,161.09c.14,0,.17.15.22.25l4.68,7.57,6.41,10.36c.24.39.24.39-.17.62a49.43,49.43,0,0,1-13.46,5.35c-.23.06-.32,0-.36-.22-.66-3.54-1.34-7.08-2-10.62s-1.31-6.92-2-10.38c0-.2,0-.26.2-.3a27.9,27.9,0,0,0,6.28-2.56Z"/><path class="cls-12" d="M112.49,112.81c0,.16-.16.16-.25.21l-5.93,3q-6.51,3.24-13,6.5c-.25.12-.36.11-.5-.15a27.17,27.17,0,0,0-3.94-5.23c-.17-.18-.21-.28,0-.5Q96,108.8,103.15,101c.19-.2.28-.19.47,0a50.86,50.86,0,0,1,8.75,11.62A1.55,1.55,0,0,0,112.49,112.81Z"/><path class="cls-13" d="M96.6,132.34c-.23.06-.31,0-.34-.23a26.41,26.41,0,0,0-1.8-6.36c-.1-.25-.07-.35.18-.47l19-9.47c.25-.12.34-.09.46.16a49.44,49.44,0,0,1,3.73,12.42c.09.55.17,1.1.26,1.65,0,.2,0,.28-.24.3l-8.19.77-9.24.88C99.12,132.12,97.85,132.23,96.6,132.34Z"/><path class="cls-14" d="M70.2,97.43q0-5.27,0-10.55c0-.34.11-.41.42-.39a50.57,50.57,0,0,1,14.2,2.71c.22.08.25.15.16.37l-7.65,19.88c-.07.19-.12.28-.36.2a26.79,26.79,0,0,0-6.39-1.25c-.3,0-.38-.11-.38-.41Q70.21,102.71,70.2,97.43Z"/><path class="cls-15" d="M118.5,136.54a52.07,52.07,0,0,1-1.4,11.66c-.07.29-.16.36-.46.27q-10.17-2.94-20.35-5.84c-.26-.08-.32-.16-.26-.43a27.7,27.7,0,0,0,.57-6.42c0-.27.09-.32.33-.35,2.67-.24,5.33-.5,8-.75L112,134c2-.19,4.07-.38,6.11-.59.23,0,.28,0,.29.24C118.42,134.64,118.46,135.59,118.5,136.54Z"/><path class="cls-16" d="M57,110.65c0,.16-.15.15-.25.2a29,29,0,0,0-5.12,3c-.23.16-.44.48-.68.44s-.37-.35-.55-.55l-14-15.32c-.17-.18-.15-.27,0-.42a50.18,50.18,0,0,1,12.39-7.59c.24-.1.31-.06.39.17l7.68,19.8Z"/><path class="cls-17" d="M116.11,151.66c-.13.4-.24.75-.36,1.1a50.32,50.32,0,0,1-6,11.88c-.18.26-.27.35-.58.11q-8.4-6.36-16.83-12.69c-.21-.16-.25-.27-.1-.52A26.14,26.14,0,0,0,95,145.89c.1-.3.23-.32.5-.24l11.26,3.25,9,2.6C115.93,151.53,116.1,151.5,116.11,151.66Z"/><circle class="cls-18" cx="68.3" cy="136.48" r="50.17"/><path d="M11,287.58V234.8H22q11.87,0,17.23,1.9a23.06,23.06,0,0,1,12,9.33,28.31,28.31,0,0,1,4.33,15.83,27.66,27.66,0,0,1-3.43,13.95,21.94,21.94,0,0,1-8.92,8.9q-5.48,2.88-15.37,2.87Zm5.07-5h6.11q11,0,15.21-1.37a17.52,17.52,0,0,0,9.38-7A21.4,21.4,0,0,0,50.2,262a22.53,22.53,0,0,0-3.71-13,18.61,18.61,0,0,0-10.31-7.43q-5-1.5-16.36-1.5H16.08Z"/><path d="M85.66,234.8H91v52.78H85.66Z"/><path d="M145.29,234.8,170,287.58h-5.71l-8.32-17.36H133.15l-8.24,17.36H119l25-52.78ZM144.63,246l-9.07,19.1h18.08Z"/><path d="M198.77,234.8h5.29v47.69h20.35v5.09H198.77Z"/><path d="M278.59,233.47a27.46,27.46,0,0,1,20.11,8A27.74,27.74,0,0,1,279,288.91a27.11,27.11,0,0,1-19.86-8,26.36,26.36,0,0,1-8.09-19.44,28.19,28.19,0,0,1,3.68-14.11,27.28,27.28,0,0,1,23.84-13.85Zm.23,5.14a22.62,22.62,0,0,0-19.34,11.27,22.93,22.93,0,0,0-3,11.53,22.23,22.23,0,0,0,22.29,22.37,22.62,22.62,0,0,0,11.4-3,21.42,21.42,0,0,0,8.18-8.15,23,23,0,0,0,2.93-11.49,22.39,22.39,0,0,0-2.93-11.37,21.89,21.89,0,0,0-8.27-8.13A22.34,22.34,0,0,0,278.82,238.61Z"/><path d="M389,243.66l-4.1,3.88a31.31,31.31,0,0,0-9.69-6.58A26,26,0,0,0,365,238.71a24.55,24.55,0,0,0-11.85,3,22.22,22.22,0,0,0-8.72,8.27,21.34,21.34,0,0,0-3.09,11,21.7,21.7,0,0,0,3.2,11.32,22.7,22.7,0,0,0,8.84,8.43,25.46,25.46,0,0,0,12.37,3.07,21.15,21.15,0,0,0,13.81-4.6,18.09,18.09,0,0,0,6.68-11.91H369.37v-5.09h22.8q-.07,12.24-7.28,19.43t-19.29,7.19q-14.67,0-23.23-10a26.47,26.47,0,0,1-6.58-17.77,27.14,27.14,0,0,1,3.78-14,26.65,26.65,0,0,1,10.35-10.1,30.22,30.22,0,0,1,14.89-3.65,33,33,0,0,1,12.65,2.43A37.65,37.65,0,0,1,389,243.66Z"/><path d="M423,234.8h5.29v31.86a67.42,67.42,0,0,0,.21,7.07,11.78,11.78,0,0,0,1.84,5.22,10.7,10.7,0,0,0,4.42,3.52,13.81,13.81,0,0,0,6,1.42,11.93,11.93,0,0,0,5-1.11,11.29,11.29,0,0,0,4-3.09,12.74,12.74,0,0,0,2.38-4.77,39.41,39.41,0,0,0,.54-8.26V234.8h5.28v31.86a38.79,38.79,0,0,1-1.38,11.43,15.56,15.56,0,0,1-5.54,7.59,15.9,15.9,0,0,1-10.05,3.23,19.33,19.33,0,0,1-11-3.05,14.68,14.68,0,0,1-6.11-8.07q-1-3.09-1-11.13Z"/><path d="M491.72,234.8H522V240H497v16.54h24.8v5.17H497v20.74h24.8v5.16H491.72Z"/><path d="M546.31,277.75l4.5-2.69q4.74,8.71,11,8.72a10.45,10.45,0,0,0,5-1.24,8.68,8.68,0,0,0,3.56-3.32,8.48,8.48,0,0,0,1.22-4.41,8.91,8.91,0,0,0-1.79-5.2q-2.49-3.53-9.06-8.47t-8.24-7.21a13.17,13.17,0,0,1-2.8-8.08,12.27,12.27,0,0,1,1.65-6.28,11.78,11.78,0,0,1,4.66-4.46,13.4,13.4,0,0,1,6.52-1.64,14,14,0,0,1,7,1.85q3.25,1.85,6.88,6.8l-4.31,3.27a20.85,20.85,0,0,0-5.09-5.21,8.83,8.83,0,0,0-4.58-1.25,7.21,7.21,0,0,0-5.23,1.94,6.31,6.31,0,0,0-2,4.77,8.13,8.13,0,0,0,.72,3.34,12.47,12.47,0,0,0,2.63,3.51q1,1,6.83,5.28,6.87,5.06,9.42,9a14.51,14.51,0,0,1,2.55,7.93,13.42,13.42,0,0,1-4.37,10,14.69,14.69,0,0,1-10.62,4.23,15.62,15.62,0,0,1-8.74-2.56Q549.63,283.78,546.31,277.75Z"/></g></g></svg>